<?xml version="1.0" encoding="ISO-8859-1" standalone="yes"?>
<svg width="241.927" height="241.927">
  <defs> 
    <marker id="ArrowEnd" viewBox="0 0 10 10" refX="0" refY="5" 
     markerUnits="strokeWidth" 
     markerWidth="4" 
     markerHeight="3" 
     orient="auto"> 
        <path d="M 0 0 L 10 5 L 0 10 z" /> 
    </marker>
    <marker id="ArrowStart" viewBox="0 0 10 10" refX="10" refY="5" 
     markerUnits="strokeWidth" 
     markerWidth="4" 
     markerHeight="3" 
     orient="auto"> 
        <path d="M 10 0 L 0 5 L 10 10 z" /> 
    </marker> </defs>
<g>
<defs><linearGradient id="1" x1="120.963" y1="231.927" x2="120.963" y2="10" gradientUnits="userSpaceOnUse">
<stop offset="0" style="stop-color:#ffa2a2"/>
<stop offset="1" style="stop-color:#ffe30b"/>
</linearGradient>
</defs><path style="stroke:#000000; stroke-width:4.0; fill-rule:evenodd; fill:url(#1)" d="M 60.9634 30.9634L 180.963 30.9634C 197.522 30.9634 210.963 44.4043 210.963 60.9634L 210.963 180.963C 210.963 197.522 197.522 210.963 180.963 210.963L 60.9634 210.963C 44.4043 210.963 30.9634 197.522 30.9634 180.963L 30.9634 60.9634C 30.9634 44.4043 44.4043 30.9634 60.9634 30.9634z"/>
<path style="stroke:#000000; stroke-width:4.0; fill:none" d="M 20.9634 20.9634L 220.963 20.9634L 220.963 220.963L 20.9634 220.963L 20.9634 20.9634z"/>
</g>
</svg>