<?xml version="1.0" encoding="ISO-8859-1" standalone="yes"?>
<svg width="220.963" height="224.079">
  <defs> 
    <marker id="ArrowEnd" viewBox="0 0 10 10" refX="0" refY="5" 
     markerUnits="strokeWidth" 
     markerWidth="4" 
     markerHeight="3" 
     orient="auto"> 
        <path d="M 0 0 L 10 5 L 0 10 z" /> 
    </marker>
    <marker id="ArrowStart" viewBox="0 0 10 10" refX="10" refY="5" 
     markerUnits="strokeWidth" 
     markerWidth="4" 
     markerHeight="3" 
     orient="auto"> 
        <path d="M 10 0 L 0 5 L 10 10 z" /> 
    </marker> </defs>
<g>
<path style="stroke:#000000; stroke-width:2; fill-rule:evenodd; fill:#ffffff" d="M 10.4817 13.5977L 150.482 13.5977C 170.482 23.5977 200.482 53.5977 210.482 73.5977L 210.482 213.598L 10.4817 213.598L 10.4817 13.5977z"/>
<path style="stroke:#000000; stroke-width:2; fill-rule:evenodd; fill:#42d5ff" d="M 30.4817 33.5977L 170.482 33.5977L 190.482 53.5977L 190.482 193.598L 30.4817 193.598L 30.4817 33.5977z"/>
<path style="stroke:#000000; stroke-width:2; fill-rule:evenodd; fill:#ffffff" d="M 210.482 73.5977C 200.482 53.5977 170.482 23.5977 150.482 13.5977C 160.482 43.5977 150.482 73.5977 150.482 73.5977C 150.482 73.5977 180.482 63.5977 210.482 73.5977z"/>
<path style="stroke:#000000; stroke-width:2; fill-rule:evenodd; fill:#74ff2a" d="M 30.4817 123.598C 80.4817 133.598 130.482 103.598 190.482 123.598L 190.482 193.598C 190.482 193.598 30.4817 193.598 30.4817 193.598C 30.4817 193.598 30.4817 123.598 30.4817 123.598z"/>
<path style="stroke:#000000; stroke-width:2; fill-rule:evenodd; fill:#fff834" d="M 209.023 21.6547L 191.539 24.0127L 179.727 10.4817L 176.517 28.3747L 160.413 35.7707L 175.913 44.4727L 177.772 62.5747L 190.562 50.0597L 207.815 53.8507L 200.219 37.4147L 209.023 21.6547z"/>
</g>
</svg>